<svg xmlns="http://www.w3.org/2000/svg" data-name="Calque 1" viewBox="0 0 311.84 404.6">
    <path
        d="M467.67 742.33a5.5 5.5 0 1 1 5.5-5.5 5.5 5.5 0 0 1-5.5 5.5Zm0-9a3.5 3.5 0 1 0 3.5 3.5 3.5 3.5 0 0 0-3.5-3.5Z"
        style="fill:#f6d855" transform="translate(-419.67 -337.72)" />
    <path
        d="M471.37 737.35v-40.21l29.05-6.51a19.62 19.62 0 0 1 8.58 38.29Zm2-38.61v36.11l35.19-7.85a17.62 17.62 0 1 0-7.71-34.39Z"
        style="fill:#f6d855" transform="translate(-419.67 -337.72)" />
    <path
        d="M524.33 711.72h-2.06v-1.05a17.38 17.38 0 0 0-.38-4.75 17.65 17.65 0 0 0-21-13.34l-14 3.14v-.13l-43.28 9.88a19.64 19.64 0 0 1-23.44-14.86 21.06 21.06 0 0 1-.43-3.27v-1.7c0-.58.07-1.18.14-1.73s.18-1.19.3-1.71a19.63 19.63 0 0 1 3.36-7.46l.16-.23c.23-.3.48-.59.72-.88l.13-.16c.1-.12.2-.24.31-.35s.47-.5.72-.74.38-.38.57-.55.47-.42.71-.62l.71-.56c.23-.18.47-.35.71-.52s.54-.36.82-.53.47-.29.71-.42.64-.34 1-.49l.14-.07.55-.26c.37-.17.76-.31 1.15-.45l.19-.08.4-.14a18.3 18.3 0 0 1 1.84-.51l51.86-11.81.78-.25 1.86-.42v.08l34.75-7.78ZM488 657.17l-52.55 12a16.48 16.48 0 0 0-1.65.46l-.3.11-.23.09c-.35.12-.7.25-1 .4l-.46.22-.15.08c-.29.14-.58.28-.86.44s-.43.25-.64.38l-.74.47c-.22.15-.43.31-.64.47s-.42.33-.63.5l-.64.55-.5.48c-.23.23-.45.45-.66.68l-.25.3-.12.14c-.24.28-.47.54-.67.81l-.14.21a17.49 17.49 0 0 0-3 6.66 14.31 14.31 0 0 0-.26 1.5c-.07.57-.12 1.06-.14 1.56s0 1.11 0 1.6a18.09 18.09 0 0 0 .38 2.94 17.65 17.65 0 0 0 21.05 13.34l45.72-10.44v.14l11.56-2.59a19.66 19.66 0 0 1 21.91 10.51v-51.71ZM683.53 452.8a5.5 5.5 0 1 1 5.5-5.5 5.5 5.5 0 0 1-5.5 5.5Zm0-9a3.5 3.5 0 1 0 3.5 3.5 3.51 3.51 0 0 0-3.5-3.5Z"
        style="fill:#f6d855" transform="translate(-419.67 -337.72)" />
    <path
        d="m650.78 493.5-.44-1.95 27.48-6.16v-36.11l-35.18 7.88a17.67 17.67 0 0 0-13.34 21l-1.95.44a19.63 19.63 0 0 1 14.85-23.44l37.62-8.43V487Z"
        style="fill:#f6d855" transform="translate(-419.67 -337.72)" />
    <path
        d="M627.35 478.65a19.36 19.36 0 0 1-.43-5.29l1 .05v-1h1.06v1a17.35 17.35 0 0 0 .38 4.75ZM628.09 536.89l-.44-2 35.47-7.89 52.64-12c.53-.12 1.07-.27 1.65-.46l.3-.11.23-.09c.35-.12.7-.25 1-.4l.43-.21.18-.09c.29-.14.58-.28.86-.44s.43-.25.64-.38l.74-.47.64-.47.63-.5.64-.55c.18-.16.34-.33.51-.5s.44-.43.65-.66l.25-.29.12-.15c.25-.29.47-.54.67-.81l.14-.21a17.65 17.65 0 0 0 3-6.66c.11-.52.2-1 .26-1.5s.11-1.07.13-1.56 0-1.1 0-1.6a17 17 0 0 0-.39-2.93 17.64 17.64 0 0 0-21-13.35l-45.72 10.44v-.14l-11.56 2.59a19.56 19.56 0 0 1-9.19-.16l.5-1.93a17.44 17.44 0 0 0 8.25.14l14-3.14v.13l43.28-9.88a19.65 19.65 0 0 1 23.44 14.86 20 20 0 0 1 .42 3.27 16 16 0 0 1 0 1.7c0 .63-.07 1.18-.14 1.73a17.32 17.32 0 0 1-.29 1.71 19.78 19.78 0 0 1-3.36 7.46l-.16.23q-.35.45-.72.87l-.14.17-.3.35c-.23.26-.47.5-.72.74s-.37.38-.57.56-.47.41-.72.61-.46.38-.7.56-.47.35-.71.52l-.83.53c-.23.14-.46.29-.71.42s-.63.34-.95.49l-.17.09-.52.24c-.38.17-.76.31-1.15.45l-.19.08-.4.14c-.65.21-1.25.38-1.84.51l-51.86 11.81-.78.25-1.86.42v-.08ZM646.08 680.73a24.62 24.62 0 0 1-24.71-23.86 1 1 0 0 1 1-1 1 1 0 0 1 1 1 22.72 22.72 0 1 0 22.71-23.51c-.59 0-1.18 0-1.76.06a1 1 0 0 1-.15-2c.63-.05 1.27-.07 1.91-.07a24.72 24.72 0 0 1 0 49.44Z"
        style="fill:#f6d855" transform="translate(-419.67 -337.72)" />
    <path
        d="M646.08 665.4a9.4 9.4 0 1 1 9.39-9.39 9.41 9.41 0 0 1-9.39 9.39Zm0-17.79a8.4 8.4 0 1 0 8.39 8.4 8.41 8.41 0 0 0-8.39-8.4Z"
        style="fill:#f6d855" transform="translate(-419.67 -337.72)" />
    <circle cx="226.41" cy="318.29" r="3.81" style="fill:#f6d855" />
    <path d="M625.23 679.3a1 1 0 0 1-.7-.3 1 1 0 0 1 0-1.41l4.19-4.19a1 1 0 0 1 1.41 1.41l-4.19 4.19a1 1 0 0 1-.71.3Z"
        style="fill:#f6d855" transform="translate(-419.67 -337.72)" />
    <path d="M227.26 349.21v-5.93" style="fill:#f6d855" />
    <path d="M646.92 687.93a1 1 0 0 1-1-1V681a1 1 0 0 1 2 0v5.93a1 1 0 0 1-1 1Z" style="fill:#f6d855"
        transform="translate(-419.67 -337.72)" />
    <path d="M668.37 678.7a1 1 0 0 1-.71-.29l-4.19-4.2a1 1 0 1 1 1.41-1.41l4.19 4.19a1 1 0 0 1-.7 1.71Z"
        style="fill:#f6d855" transform="translate(-419.67 -337.72)" />
    <path d="M257.33 318.29h-5.93" style="fill:#f6d855" />
    <path d="M677 657h-5.93a1 1 0 1 1 0-2H677a1 1 0 0 1 0 2Z" style="fill:#f6d855"
        transform="translate(-419.67 -337.72)" />
    <path
        d="M663.57 639.76a1 1 0 0 1-.7-1.71l4.19-4.19a1 1 0 0 1 1.41 1.41l-4.19 4.2a1 1 0 0 1-.71.29ZM633.82 670.93a.49.49 0 0 1-.32-.12 19.44 19.44 0 0 1-6.83-14.11.5.5 0 1 1 1 0 18.47 18.47 0 0 0 6.49 13.39.5.5 0 0 1 .06.7.5.5 0 0 1-.4.14ZM646.08 675.43a.5.5 0 0 1-.5-.5.5.5 0 0 1 .5-.5 18.43 18.43 0 0 0 7.55-35.23.5.5 0 0 1-.25-.66.5.5 0 0 1 .66-.25 19.42 19.42 0 0 1-8 37.14Z"
        style="fill:#f6d855" transform="translate(-419.67 -337.72)" />
    <path
        d="M647.7 672.27a.5.5 0 0 1-.05-1 15.33 15.33 0 0 0 6.64-2.3.49.49 0 0 1 .69.16.5.5 0 0 1-.16.69 16.38 16.38 0 0 1-7.07 2.45ZM659.17 665.42a.49.49 0 0 1-.41-.78 15.34 15.34 0 0 0-20.67-21.73.51.51 0 0 1-.69-.17.5.5 0 0 1 .17-.69 16.35 16.35 0 0 1 22 23.16.51.51 0 0 1-.4.21ZM644.5 672.27A16.34 16.34 0 0 1 631.31 649a.5.5 0 1 1 .9.43 15.35 15.35 0 0 0 12.34 21.85.5.5 0 0 1 0 1Z"
        style="fill:#f6d855" transform="translate(-419.67 -337.72)" />
    <path
        d="M635.49 649.37a.45.45 0 0 1-.27-.08.51.51 0 0 1-.14-.7 13.3 13.3 0 0 1 16.92-4.46.5.5 0 0 1 .22.68.5.5 0 0 1-.67.22 12.11 12.11 0 0 0-5.46-1.28 12.27 12.27 0 0 0-10.17 5.4.48.48 0 0 1-.43.22ZM636.83 665.3a.51.51 0 0 1-.36-.15 13.19 13.19 0 0 1-3.65-9.14.5.5 0 0 1 .5-.5.5.5 0 0 1 .5.5 12.19 12.19 0 0 0 3.37 8.45.5.5 0 0 1 0 .71.48.48 0 0 1-.36.13ZM639.61 667.51a.48.48 0 0 1-.26-.07 12.28 12.28 0 0 1-1.42-1 .5.5 0 1 1 .61-.79 12.81 12.81 0 0 0 1.32.9.5.5 0 0 1-.25.93ZM646.08 669.27a13.23 13.23 0 0 1-4.91-.94.49.49 0 0 1-.27-.65.5.5 0 0 1 .64-.28 12.14 12.14 0 0 0 4.54.87 12.26 12.26 0 0 0 10.7-18.27.5.5 0 0 1 .19-.68.5.5 0 0 1 .68.19 13.25 13.25 0 0 1-4.16 17.49 13.13 13.13 0 0 1-7.41 2.27ZM556.29 690a17.33 17.33 0 0 1-.67-34.65 1 1 0 0 1 1 1 1 1 0 0 1-1 1A15.3 15.3 0 1 0 569 664a1 1 0 0 1 .26-1.39 1 1 0 0 1 1.39.26A17.34 17.34 0 0 1 556.29 690Z"
        style="fill:#f6d855" transform="translate(-419.67 -337.72)" />
    <path
        d="M556.29 679.26a6.63 6.63 0 1 1 6.63-6.62 6.63 6.63 0 0 1-6.63 6.62Zm0-12.25a5.63 5.63 0 1 0 5.63 5.63 5.63 5.63 0 0 0-5.63-5.64Z"
        style="fill:#f6d855" transform="translate(-419.67 -337.72)" />
    <circle cx="136.62" cy="334.92" r="2.62" style="fill:#f6d855" />
    <path d="M157.33 334.92h-4.08" style="fill:#f6d855" />
    <path d="M577 673.64h-4.08a1 1 0 0 1 0-2H577a1 1 0 0 1 0 2Z" style="fill:#f6d855"
        transform="translate(-419.67 -337.72)" />
    <path d="M543.83 662.18a1 1 0 0 1-.71-.3l-2.88-2.88a1 1 0 0 1 0-1.42 1 1 0 0 1 1.41 0l2.89 2.89a1 1 0 0 1-.71 1.71Z"
        style="fill:#f6d855" transform="translate(-419.67 -337.72)" />
    <path d="M115.33 335.5h4.09" style="fill:#f6d855" />
    <path d="M539.08 674.22H535a1 1 0 0 1 0-2h4.08a1 1 0 1 1 0 2Z" style="fill:#f6d855"
        transform="translate(-419.67 -337.72)" />
    <path d="M541.36 689a1 1 0 0 1-.71-1.71l2.89-2.89a1 1 0 0 1 1.41 0 1 1 0 0 1 0 1.42l-2.89 2.88a1 1 0 0 1-.7.3Z"
        style="fill:#f6d855" transform="translate(-419.67 -337.72)" />
    <path d="M136.62 356.21v-4.08" style="fill:#f6d855" />
    <path d="M556.29 694.93a1 1 0 0 1-1-1v-4.08a1 1 0 1 1 2 0v4.08a1 1 0 0 1-1 1Z" style="fill:#f6d855"
        transform="translate(-419.67 -337.72)" />
    <path
        d="M571.06 688.58a1 1 0 0 1-.71-.3l-2.89-2.89a1 1 0 0 1 0-1.41 1 1 0 0 1 1.42 0l2.88 2.89a1 1 0 0 1 0 1.41 1 1 0 0 1-.7.3ZM549.94 683a.47.47 0 0 1-.27-.08 12.24 12.24 0 0 1-2.4-2 .5.5 0 1 1 .74-.68 11 11 0 0 0 2.21 1.87.5.5 0 0 1 .14.69.48.48 0 0 1-.42.2ZM556.29 684.85a12.23 12.23 0 0 1-4.74-1 .5.5 0 0 1-.26-.66.51.51 0 0 1 .65-.27 11.22 11.22 0 0 0 11.12-1.39.5.5 0 1 1 .6.79 12.08 12.08 0 0 1-7.37 2.53ZM564.63 681.36a.52.52 0 0 1-.35-.14.5.5 0 0 1 0-.71 11.86 11.86 0 0 0 .82-.93.5.5 0 0 1 .79.62 12.25 12.25 0 0 1-.9 1 .47.47 0 0 1-.36.16ZM546.21 679.09a.5.5 0 0 1-.43-.25 12.21 12.21 0 1 1 21.09-.11.5.5 0 1 1-.86-.5 11.21 11.21 0 1 0-20.93-5.59 11.11 11.11 0 0 0 1.56 5.69.51.51 0 0 1-.18.69.47.47 0 0 1-.25.07Z"
        style="fill:#f6d855" transform="translate(-419.67 -337.72)" />
    <path
        d="M548.3 668.56a.47.47 0 0 1-.25-.07.49.49 0 0 1-.18-.68 9.72 9.72 0 0 1 6.47-4.68.5.5 0 0 1 .59.39.51.51 0 0 1-.39.59 8.7 8.7 0 0 0-5.8 4.2.51.51 0 0 1-.44.25ZM556.29 682.35a9.73 9.73 0 0 1-9.71-9.71.5.5 0 0 1 .5-.5.5.5 0 0 1 .5.5 8.71 8.71 0 0 0 17.33 1.23.51.51 0 0 1 .57-.42.5.5 0 0 1 .42.56 9.75 9.75 0 0 1-9.61 8.34ZM565.41 671.85a.49.49 0 0 1-.49-.43 8.7 8.7 0 0 0-7.56-7.42.5.5 0 0 1 .12-1 9.73 9.73 0 0 1 8.43 8.28.5.5 0 0 1-.43.56ZM589.5 667.43a61.82 61.82 0 0 1-47.84-22.56 1 1 0 1 1 1.54-1.27 60 60 0 0 0 104.39-23.09 1 1 0 1 1 1.93.51 62 62 0 0 1-60.02 46.41Z"
        style="fill:#f6d855" transform="translate(-419.67 -337.72)" />
    <path
        d="M589.5 647.93a42.2 42.2 0 0 1-24.82-8 1 1 0 0 1 1.17-1.63 40.17 40.17 0 0 0 23.65 7.62 40.58 40.58 0 0 0 35.38-20.77 1 1 0 0 1 1.75 1 42.57 42.57 0 0 1-37.13 21.78ZM597 680.93h-15v-15h15Zm-13-2h11v-11h-11Z"
        style="fill:#f6d855" transform="translate(-419.67 -337.72)" />
    <path d="M593 676.93h-6.5a.5.5 0 0 1-.5-.5.5.5 0 0 1 .5-.5h5.5v-2.5a.5.5 0 1 1 1 0Z" style="fill:#f6d855"
        transform="translate(-419.67 -337.72)" />
    <path d="M20.58 192.96h1v16.25h-1zM11.58 183.96h1v11.25h-1z" style="fill:#f6d855" />
    <path d="M431.5 548.43a6.5 6.5 0 0 1-3.92-11.68l.6.79a5.5 5.5 0 1 0 8.82 4.39h1a6.51 6.51 0 0 1-6.5 6.5Z"
        style="fill:#f6d855" transform="translate(-419.67 -337.72)" />
    <path
        d="M431.5 545.93a3.73 3.73 0 0 1-3.72-3.72 3.68 3.68 0 0 1 1.48-3l.6.79a2.69 2.69 0 0 0-1.08 2.17 2.72 2.72 0 1 0 5.44 0v-15.24h1v15.28a3.73 3.73 0 0 1-3.72 3.72Z"
        style="fill:#f6d855" transform="translate(-419.67 -337.72)" />
    <path
        d="M433.25 558.43a4.75 4.75 0 0 1-4.75-4.75h1a3.75 3.75 0 0 0 7.5 0v-32.36h1v32.36a4.75 4.75 0 0 1-4.75 4.75ZM424.5 530.43a1.5 1.5 0 1 1 1.5-1.5 1.5 1.5 0 0 1-1.5 1.5Zm0-2a.5.5 0 0 0-.5.5.5.5 0 0 0 1 0 .5.5 0 0 0-.5-.5ZM442.5 553.43a1.5 1.5 0 1 1 1.5-1.5 1.5 1.5 0 0 1-1.5 1.5Zm0-2a.5.5 0 0 0-.5.5.5.5 0 0 0 1 0 .5.5 0 0 0-.5-.5ZM485.23 501.58a9.22 9.22 0 1 1 9.21-9.22 9.24 9.24 0 0 1-9.21 9.22Zm0-16.43a7.22 7.22 0 1 0 7.21 7.21 7.22 7.22 0 0 0-7.21-7.21Z"
        style="fill:#f6d855" transform="translate(-419.67 -337.72)" />
    <path
        d="M485.23 497.71a5.35 5.35 0 1 1 5.34-5.35 5.36 5.36 0 0 1-5.34 5.35Zm0-9.69a4.35 4.35 0 1 0 4.34 4.34 4.35 4.35 0 0 0-4.34-4.36Z"
        style="fill:#f6d855" transform="translate(-419.67 -337.72)" />
    <path
        d="M485.23 495.13a2.77 2.77 0 0 1-2.77-2.77.5.5 0 0 1 .5-.5.51.51 0 0 1 .5.5 1.77 1.77 0 1 0 3.54 0 .5.5 0 0 1 1 0 2.77 2.77 0 0 1-2.77 2.77Z"
        style="fill:#f6d855" transform="translate(-419.67 -337.72)" />
    <ellipse cx="65.54" cy="152.57" rx=".96" ry=".52" style="fill:#f6d855" />
    <path
        d="M444.07 522.13a5.16 5.16 0 0 0-2.44-.61H426.5v-1.63a11.76 11.76 0 0 1 11.75-11.75h9a11.71 11.71 0 0 1 7.67 2.88l-.65.75a10.73 10.73 0 0 0-7-2.63h-9a10.76 10.76 0 0 0-10.75 10.75v.63h14.13a6.17 6.17 0 0 1 2.92.73Z"
        style="fill:#f6d855" transform="translate(-419.67 -337.72)" />
    <path
        d="M447.76 532.12h-1v-5.48a5.13 5.13 0 0 0-2.69-4.51l-.59-.32 3.83-3.83.71.71-2.91 2.91a6.12 6.12 0 0 1 2.65 5ZM459 532.12h-1v-12.23a10.75 10.75 0 0 0-3.39-7.81l-3 3-.7-.7 3.66-3.67.35.31a11.71 11.71 0 0 1 4.08 8.87Z"
        style="fill:#f6d855" transform="translate(-419.67 -337.72)" />
    <path d="M38.35 169.79h1v11.24h-1z" style="fill:#f6d855" />
    <path
        d="M463 555.84a16 16 0 0 1-4.64-.69l-.36-.1v-9.47h1v8.72a14.07 14.07 0 0 0 4.63.52h.26a15.26 15.26 0 0 0 14.37-15.21v-1.54h1v1.54A16.27 16.27 0 0 1 464 555.8h-.26q-.37.04-.74.04Z"
        style="fill:#f6d855" transform="translate(-419.67 -337.72)" />
    <path d="M38.34 194.37h1V203h-1z" style="fill:#f6d855" />
    <path
        d="m46.78 197.48-8.44-2.49v-14.46h8.52v1h-7.52v12.71l7.72 2.29-.28.95zM59.6 201.28l-8.01-2.37.28-.96 6.73 1.99v-18.41h-6.89v-1h7.89v20.75z"
        style="fill:#f6d855" />
    <path d="M469 533.43a2 2 0 1 1-1.57.76 2 2 0 0 1 1.57-.76m0-1a3 3 0 1 0 1.88.66 3 3 0 0 0-1.88-.66Z"
        style="fill:#f6d855" transform="translate(-419.67 -337.72)" />
    <path
        d="M467.17 536.88a2.22 2.22 0 0 0 .37.38 1.78 1.78 0 0 0 .45.28l2.84-3.54a2.22 2.22 0 0 0-.37-.38 2.6 2.6 0 0 0-.45-.28ZM469 517.27a2 2 0 0 1 1.54.71 2 2 0 0 1-.25 2.83 2 2 0 0 1-1.29.47 2 2 0 0 1-1.54-.71 2 2 0 0 1 .25-2.83 2 2 0 0 1 1.29-.47m0-1a3 3 0 0 0-2.3 4.94 3 3 0 0 0 2.3 1.07 3 3 0 0 0 2.3-4.94 3 3 0 0 0-2.3-1.07Z"
        style="fill:#f6d855" transform="translate(-419.67 -337.72)" />
    <path
        d="M467.94 517.2a2.39 2.39 0 0 0-.44.29 2.19 2.19 0 0 0-.36.39l2.92 3.47a2.39 2.39 0 0 0 .44-.29 2.19 2.19 0 0 0 .36-.39ZM458.23 555.63a16.87 16.87 0 0 1-12-16v-13a4.63 4.63 0 0 0-4.63-4.62H426v-2.13a12.26 12.26 0 0 1 12.25-12.25h9a12.26 12.26 0 0 1 12.25 12.25h-2a10.26 10.26 0 0 0-10.25-10.25h-9A10.26 10.26 0 0 0 428 519.89v.11h13.63a6.63 6.63 0 0 1 6.63 6.62v13a14.87 14.87 0 0 0 10.54 14.13Z"
        style="fill:#f6d855" transform="translate(-419.67 -337.72)" />
    <path d="M36.36 193.9h2.48v1h-2.48z" style="fill:#f6d855" />
    <path d="M458.37 555.15a16.36 16.36 0 0 1-11.61-15.56v-8h3.62v1h-2.62v7a15.37 15.37 0 0 0 10.9 14.61Z"
        style="fill:#f6d855" transform="translate(-419.67 -337.72)" />
    <path
        d="M453.17 530.16a2 2 0 0 1 .79.16 2 2 0 1 1-1.59 3.69 2 2 0 0 1 .8-3.85m0-1a3 3 0 0 0-1.19 5.77 3 3 0 0 0 1.19.25 3 3 0 0 0 1.19-5.78 3.16 3.16 0 0 0-1.19-.24Z"
        style="fill:#f6d855" transform="translate(-419.67 -337.72)" />
    <path
        d="M451.29 530.79a2.56 2.56 0 0 0-.27.45 2.42 2.42 0 0 0-.14.51l4.16 1.8a1.92 1.92 0 0 0 .27-.46 2.46 2.46 0 0 0 .15-.51ZM458.17 541.16a2 2 0 0 1 .79.16 2 2 0 1 1-1.59 3.69 2 2 0 0 1 .8-3.85m0-1a3 3 0 0 0-1.19 5.77 3 3 0 0 0 1.19.25 3 3 0 0 0 1.19-5.78 3.16 3.16 0 0 0-1.19-.24Z"
        style="fill:#f6d855" transform="translate(-419.67 -337.72)" />
    <path
        d="M456.29 541.79a2.56 2.56 0 0 0-.27.45 2.42 2.42 0 0 0-.14.51l4.16 1.8a1.92 1.92 0 0 0 .27-.46 2.46 2.46 0 0 0 .15-.51ZM449.5 514.49a2 2 0 0 1 .07 4h-.07a2 2 0 0 1-.07-4h.07m0-1h-.11a3 3 0 0 0 .11 6h.11a3 3 0 0 0-.11-6Z"
        style="fill:#f6d855" transform="translate(-419.67 -337.72)" />
    <path
        d="M451.79 516.94a2.24 2.24 0 0 0 0-.52 2.34 2.34 0 0 0-.08-.53l-4.54.17a2.24 2.24 0 0 0 0 .52 2.34 2.34 0 0 0 .08.53ZM483.06 504.56a7.61 7.61 0 0 0-1 .06l3.47 1.77a7.35 7.35 0 0 1 1 .6 6.79 6.79 0 0 1-8 11 6 6 0 0 1-.89-.77l-3-2.88a8.49 8.49 0 1 0 8.38-9.84Z"
        style="fill:#f6d855" transform="translate(-419.67 -337.72)" />
    <path
        d="M482.54 519.81a7.28 7.28 0 0 1-4.27-1.39 8.7 8.7 0 0 1-.81-.69.38.38 0 0 1-.15-.09L444.65 486a.5.5 0 0 1 .58-.8l40.57 20.7a.54.54 0 0 1 .16.14 7.34 7.34 0 0 1 .89.55 7.29 7.29 0 0 1-3.15 13.09 7.55 7.55 0 0 1-1.16.13Zm-4.67-3a.42.42 0 0 1 .17.1 6.13 6.13 0 0 0 .82.72 6.29 6.29 0 1 0 7.4-10.17 6.71 6.71 0 0 0-.94-.57.7.7 0 0 1-.17-.13l-37.4-19.09ZM463 556.34a16.69 16.69 0 0 1-4.79-.71l-.71-.21v-9.92h2v8.41a13.27 13.27 0 0 0 4.09.41h.27a14.76 14.76 0 0 0 13.9-14.71v-20.46h2v20.44a16.75 16.75 0 0 1-15.76 16.7h-.25c-.25.04-.49.05-.75.05Z"
        style="fill:#f6d855" transform="translate(-419.67 -337.72)" />
    <path
        d="M459.51 540.71h-2v-33.2a1 1 0 0 1 1-1h9.05v2h-8.05ZM500.83 493.93a.54.54 0 0 1-.35-.14.5.5 0 0 1 0-.71l5.67-5.67a.5.5 0 0 1 .7 0 .5.5 0 0 1 0 .71l-5.66 5.67a.54.54 0 0 1-.36.14ZM500.83 498.27a.5.5 0 0 1-.35-.15.5.5 0 0 1 0-.71l5.67-5.66a.49.49 0 0 1 .7.7l-5.66 5.67a.51.51 0 0 1-.36.15ZM500.83 502.6a.5.5 0 0 1-.35-.15.48.48 0 0 1 0-.7l5.67-5.67a.48.48 0 0 1 .7 0 .5.5 0 0 1 0 .71l-5.66 5.66a.51.51 0 0 1-.36.15ZM500.83 506.93a.54.54 0 0 1-.35-.14.5.5 0 0 1 0-.71l5.67-5.67a.5.5 0 0 1 .7 0 .5.5 0 0 1 0 .71l-5.66 5.67a.54.54 0 0 1-.36.14ZM500.83 511.27a.5.5 0 0 1-.35-.15.5.5 0 0 1 0-.71l5.67-5.66a.49.49 0 0 1 .7.7l-5.66 5.67a.51.51 0 0 1-.36.15ZM555.29 579.77v.11-.11ZM560.75 579.77ZM549.82 579.77ZM538.89 579.77ZM533.42 579.77v.11-.11ZM544.35 579.77v.11a.45.45 0 0 1 0-.11Z"
        style="fill:#f6d855" transform="translate(-419.67 -337.72)" />
    <circle cx="133.15" cy="212.23" r="1.32" style="fill:#f6d855" />
    <path
        d="M500.83 515.6a.5.5 0 0 1-.35-.15.48.48 0 0 1 0-.7l5.67-5.67a.48.48 0 0 1 .7 0 .5.5 0 0 1 0 .71l-5.66 5.66a.51.51 0 0 1-.36.15ZM500.83 519.93a.54.54 0 0 1-.35-.14.5.5 0 0 1 0-.71l5.67-5.67a.5.5 0 0 1 .7 0 .5.5 0 0 1 0 .71l-5.66 5.67a.54.54 0 0 1-.36.14ZM523 473.83a2 2 0 0 1 1.26.44 2 2 0 0 1 .74 1.34 2.06 2.06 0 0 1-.43 1.48 2 2 0 0 1-2.83.31 2 2 0 0 1-.31-2.82 2 2 0 0 1 1.57-.75m0-1a3 3 0 0 0-1.88 5.35 3 3 0 0 0 1.88.66 3 3 0 0 0 1.88-5.35 3 3 0 0 0-1.88-.66Z"
        style="fill:#f6d855" transform="translate(-419.67 -337.72)" />
    <path
        d="M521.17 477.28a2.59 2.59 0 0 0 .37.37 1.78 1.78 0 0 0 .45.28l2.84-3.54a2.65 2.65 0 0 0-.37-.38 2.6 2.6 0 0 0-.45-.28ZM535.59 475.49a2 2 0 0 1 1.12.35 2 2 0 1 1-2.79.53 2 2 0 0 1 1.67-.88m0-1a3 3 0 0 0-1.7 5.5 3 3 0 1 0 1.7-5.5Z"
        style="fill:#f6d855" transform="translate(-419.67 -337.72)" />
    <path
        d="M534 475.79a3.46 3.46 0 0 0-.35.4 3 3 0 0 0-.24.47l3.75 2.55a2.23 2.23 0 0 0 .35-.4 2.32 2.32 0 0 0 .24-.47ZM511.5 478a2 2 0 0 1 .38 4 1.69 1.69 0 0 1-.38 0 2 2 0 0 1-.38-4 1.69 1.69 0 0 1 .38 0m0-1a3.64 3.64 0 0 0-.56.05 3 3 0 0 0 .56 6 3.64 3.64 0 0 0 .56-.05 3 3 0 0 0-.56-6Z"
        style="fill:#f6d855" transform="translate(-419.67 -337.72)" />
    <path
        d="M511.59 477.67a2.41 2.41 0 0 0-.53 0 2.24 2.24 0 0 0-.5.16l.85 4.46a2.41 2.41 0 0 0 .53 0 2.24 2.24 0 0 0 .5-.16ZM609.58 487.72a1.32 1.32 0 0 0-.28 2.63 1.32 1.32 0 1 0 .28-2.63Z"
        style="fill:#f6d855" transform="translate(-419.67 -337.72)" />
    <circle cx="200.17" cy="152.43" r="1.32" style="fill:#f6d855" />
    <circle cx="210.56" cy="153.55" r="1.32" style="fill:#f6d855" />
    <path
        d="M608.69 496a1.33 1.33 0 1 0 1.17 1.46 1.33 1.33 0 0 0-1.17-1.46ZM619.08 497.14a1.33 1.33 0 1 0 1.17 1.46 1.33 1.33 0 0 0-1.17-1.46ZM629.47 498.26a1.33 1.33 0 1 0 1.18 1.46 1.33 1.33 0 0 0-1.18-1.46ZM607.79 504.33a1.32 1.32 0 1 0 1.18 1.46 1.32 1.32 0 0 0-1.18-1.46Z"
        style="fill:#f6d855" transform="translate(-419.67 -337.72)" />
    <circle cx="198.37" cy="169.04" r="1.32" style="fill:#f6d855" />
    <circle cx="208.76" cy="170.16" r="1.32" style="fill:#f6d855" />
    <path d="M607.9 504.32a1.32 1.32 0 1 0 1.17 1.46 1.33 1.33 0 0 0-1.17-1.46Z" style="fill:#f6d855"
        transform="translate(-419.67 -337.72)" />
    <circle cx="198.48" cy="169.03" r="1.32" style="fill:#f6d855" />
    <circle cx="208.87" cy="170.16" r="1.32" style="fill:#f6d855" />
    <path
        d="M617.39 513.74a1.33 1.33 0 1 0 1.18 1.46 1.34 1.34 0 0 0-1.18-1.46ZM627.78 514.86a1.33 1.33 0 1 0 1.18 1.46 1.34 1.34 0 0 0-1.18-1.46Z"
        style="fill:#f6d855" transform="translate(-419.67 -337.72)" />
    <circle cx="196.69" cy="185.65" r="1.32" style="fill:#f6d855" />
    <circle cx="207.08" cy="186.77" r="1.32" style="fill:#f6d855" />
    <path
        d="m637.81 534.36-.8-.6a3 3 0 0 0-.26-4l-.42-.43.51-.34a3 3 0 0 0 .5-4.66l-.42-.44.5-.33a3.05 3.05 0 0 0 .51-4.67l-.42-.43.5-.33a3.06 3.06 0 0 0 1.35-2.22 3 3 0 0 0-.85-2.45l-.42-.43.51-.33a3.06 3.06 0 0 0 .5-4.67l-.42-.43.5-.34a3.05 3.05 0 0 0 .51-4.67l-.42-.43.5-.33a3 3 0 0 0 .5-4.67l-.42-.43.5-.33a3.06 3.06 0 0 0 .51-4.67l-.42-.43.5-.34a3 3 0 0 0 .5-4.67l-.42-.43.51-.33a3.05 3.05 0 1 0-3.82-4.73l-.43.41-.33-.5a3 3 0 0 0-2.22-1.35 3.1 3.1 0 0 0-2.45.85l-.43.42-.33-.5a3.08 3.08 0 0 0-2.22-1.35 3 3 0 0 0-2.45.84l-.43.42-.34-.5a3.05 3.05 0 0 0-4.67-.51l-.43.42-.33-.5a3 3 0 0 0-4.67-.5l-.43.41-.33-.5a3 3 0 0 0-4.67-.5l-.43.42-.34-.5a3 3 0 0 0-2.21-1.35 3.08 3.08 0 0 0-2.46.84l-.43.42-.33-.5a3.05 3.05 0 1 0-4.68 3.87l.45.44-.53.34a3 3 0 0 0-.57 4.7l.42.44-.5.33a3.06 3.06 0 0 0-.51 4.67l.42.43-.5.33A3.06 3.06 0 0 0 597 495a3 3 0 0 0 .85 2.45l.41.43-.5.34a3 3 0 0 0-1.34 2.21 3 3 0 0 0 .84 2.45l-.72.7a4 4 0 0 1 .23-5.86 4 4 0 0 1-.76-2.83 4 4 0 0 1 1.34-2.6 4.06 4.06 0 0 1 .59-5.44 4.05 4.05 0 0 1 .64-5.48 4 4 0 0 1 6.26-5.13 4 4 0 0 1 5.44.58 4 4 0 0 1 5.43.59 11.45 11.45 0 0 0 8.27-.17 4 4 0 0 0 5.43.58 4 4 0 0 0 5.43.59 4 4 0 0 1 2.6 1.35 4.06 4.06 0 0 1 6.43 3.7 4 4 0 0 1-1.35 2.6 4.07 4.07 0 0 1-.58 5.44 4 4 0 0 1-.59 5.43 4 4 0 0 1-.59 5.43 4.07 4.07 0 0 1-.58 5.44 4 4 0 0 1-.59 5.43 4 4 0 0 1-.59 5.43 4 4 0 0 1 .77 2.83 4.08 4.08 0 0 1-1.35 2.61 4 4 0 0 1-.59 5.43 4 4 0 0 1 .76 2.83 3.92 3.92 0 0 1-.78 2ZM508.1 539.46a8.89 8.89 0 0 1-8.88-8.88v-45a20.15 20.15 0 0 1 20.13-20.13h11.23a20.15 20.15 0 0 1 20.13 20.13v.26l-9 33.77c-2.47 7.48-6.86 17.58-16.61 19.53l-.39-2c6.64-1.33 11.44-7.1 15.09-18.15l9-33.57a18.16 18.16 0 0 0-18.13-18h-11.32a18.15 18.15 0 0 0-18.13 18.13v45a6.88 6.88 0 0 0 6.88 6.88Z"
        style="fill:#f6d855" transform="translate(-419.67 -337.72)" />
    <path
        d="M524.86 539.14a1 1 0 0 1-.19-2c6.64-1.33 11.44-7.1 15.09-18.15l5.83-21.88a1 1 0 0 1 1.15-.73l24 4.51a1 1 0 0 1-.38 2l-23.05-4.34-5.61 21.05c-2.47 7.48-6.86 17.58-16.61 19.53a.68.68 0 0 1-.23.01ZM500.25 532.15h-21.74v-2h20.71v-44.59a20 20 0 0 1 2.5-9.69h-23.21a19 19 0 0 0-18.87 16.89l-2-.22a21 21 0 0 1 20.86-18.67h26.9l-1.06 1.56a18 18 0 0 0-3.12 10.13v45.43l.08 1.07Z"
        style="fill:#f6d855" transform="translate(-419.67 -337.72)" />
    <path d="M37.84 161.04h2v12.39h-2zM143.71 212.61l.32-.07-.15-.13-.17.2z" style="fill:#f6d855" />
    <path
        d="M562.94 550.43a25.38 25.38 0 0 1-3.14-4.34l.58-.25-.2-.46 13.23-5.7-9.21 10.47 1.66-.38 9.69-11 3.35-1.44.14.12-.33 3.57-4 6.8 1.35-.3 2.47-4.18-.34 3.7 1-.23.51-5.47 1.85-3.13h.17l1.83 3.09.42 4.45 1-.22-.21-2.22 1.19 2 1-.23-2.41-4.08-.34-3.63.14-.11 3.31 1.43 4.59 5.21 1.11-.24-3.56-4 7.4 3.19 1.66-.38-10.6-4.56-2.41-2.75a1 1 0 0 0 0-.16l3.52-.79 16.11 3.62-.11.49.77.17a25 25 0 0 1-.62 2.48l.62-.14v.08l.48-.11a26.07 26.07 0 1 0-44.83 10ZM577.09 537l.71-.81c.09.13.21.25.31.37Zm.65-5.73-.73-.82 1 .43a4.73 4.73 0 0 0-.27.39Zm.45 3h-.1a3.19 3.19 0 0 1-.05-.54 2.58 2.58 0 0 1 0-.4h.06l.11.12v.3a3.56 3.56 0 0 0 0 .47Zm.25-2.16a3.7 3.7 0 0 1 .53-.78h.07v.18a3.27 3.27 0 0 0-.43.62h-.13Zm.73 4h-.11a3.56 3.56 0 0 1-.56-.76h.16a3.88 3.88 0 0 0 .47.6Zm.6-7.72.57.94c-.16 0-.32.09-.46.15Zm1.09 1.83v.07l-.11.19a3.65 3.65 0 0 0-.66.22l-.15-.06v-.1a3.37 3.37 0 0 1 .92-.32Zm-1 8.77.1-1.09a4.11 4.11 0 0 0 .46.15Zm1.1-1.85a3.36 3.36 0 0 1-.9-.27v-.08l.18-.08a3.9 3.9 0 0 0 .67.18l.09.16Zm.56-2.44a1 1 0 1 1 1-1 1 1 0 0 1-.96 1Zm1.46-4.23v.08l-.24.11a3 3 0 0 0-.6-.19l-.1-.18v-.09a3.36 3.36 0 0 1 .96.27Zm-.36-1.17.56-.95-.1 1.09a2.44 2.44 0 0 0-.42-.14Zm-.44 7.75.14-.24a3.73 3.73 0 0 0 .56-.2l.22.09v.1a3.37 3.37 0 0 1-.89.32Zm.57 1c.15 0 .31-.09.46-.15l.1 1.09Zm1.36-2h-.07v-.32a4.17 4.17 0 0 0 .29-.44l.28-.06.06.07a3.46 3.46 0 0 1-.52.75Zm-.22-4.55v-.27h.1a3.56 3.56 0 0 1 .56.76l-.31-.07a4.46 4.46 0 0 0-.31-.42Zm1.12 2.57h-.07l-.23-.26v-.16a1.86 1.86 0 0 0 0-.34l.2-.22h.1a3.31 3.31 0 0 1 .06.54c.02.18-.01.31-.02.44Zm0-3.29 1-.44-.71.81a3.57 3.57 0 0 0-.3-.37Zm1.1 6.11-1-.43a4.73 4.73 0 0 0 .28-.39Zm0-3v-.17a2.91 2.91 0 0 0 0-.31l1.09.24Zm20.56-.17a24.93 24.93 0 0 1-.15 2.75l-.63-.14-.11.49-14-3.17 14-3.15.11.49.65-.15a25 25 0 0 1 .09 2.83Zm-3.1-10.33.72-.31a24.34 24.34 0 0 1 1.9 5.78l-.78.18.11.48-16.07 3.62-3.56-.8-.05-.17 2.37-2.7 15.16-6.54Zm-4-6.13.44-.5a25.55 25.55 0 0 1 3.32 4.54l-.59.25.2.46-13.23 5.7 9.48-10.78Zm-6.3-4.81.4-.68a25.86 25.86 0 0 1 4.92 3.57l-.52.6.37.33-10.87 12.37-3.35 1.36-.14-.12.33-3.57 8.43-14.2Zm-6.82-2.63.07-.68a24.81 24.81 0 0 1 5.35 1.74l-.32.55.43.25-7.35 12.32 1.33-14.3Zm-8-1a24.61 24.61 0 0 1 3.11-.2 26.64 26.64 0 0 1 3 .18l-.08.8.5.05-1.54 16.35-1.86 3.13h-.18l-1.84-3.09-1.56-16.41.5-.05Zm-7.32 2.08a24.32 24.32 0 0 1 5.35-1.76l.06.65h.49l1.34 14.34-7.37-12.42.43-.25Zm-1.79.91.41.69.43-.26 8.4 14.16.34 3.63-.14.11-3.31-1.42-10.9-12.4.43-.32-.51-.59a25.51 25.51 0 0 1 4.85-3.62Zm-8.26 7.45 1.18.86-.18.24 1.46 1a.37.37 0 0 0 .53-.08l.23-.31a.4.4 0 0 0-.09-.54l-1.46-1.05-.18.24-1.18-.85c.51-.69 1.06-1.36 1.63-2l.43.48.37-.33 9.51 10.81-13.19-5.68.2-.46-.61-.26a23.84 23.84 0 0 1 1.35-2.09Zm-2.27 3.91.74.32.2-.46 15.12 6.51 2.41 2.75a1 1 0 0 0 0 .16l-3.52.79-16.16-3.64.11-.49-.77-.17a25.13 25.13 0 0 1 1.87-5.79ZM577.07 534l-1.08-.24 1.06-.24v.17a3 3 0 0 0 .02.31Zm-20.58-.31a24.93 24.93 0 0 1 .15-2.75l.63.14.11-.48 14 3.16-14 3.15-.11-.49-.65.15a25 25 0 0 1-.13-2.9Zm3.1 10.33-.72.31a24.8 24.8 0 0 1-1.9-5.78l.78-.18-.11-.48 16.07-3.62 3.56.8.06.17-2.38 2.7-15.16 6.54Z"
        style="fill:#f6d855" transform="translate(-419.67 -337.72)" />
    <path
        d="M559.87 551.12a27.86 27.86 0 1 1 48.75-10.85l2.16-.48a29.42 29.42 0 0 0 .64-6.12 29.86 29.86 0 1 0-53.71 17.93Z"
        style="fill:#f6d855" transform="translate(-419.67 -337.72)" />
    <path
        d="m546.11 532.61-.54 1.06.57 1.12-.59 1.14.69 1.07-.46 1.31.78.91-.42 1.22.81 1-.21 1.22.69.87-.14 1.27.9.87-.13 1.27 1 .82-.21 1.23 1.06.75.07 1.27 1.1.67.08 1.27.09.06 4.32-1a31.84 31.84 0 1 1 57.82-18.41 32.68 32.68 0 0 1-.5 5.64l4.09-.91.16-.22-.4-1.23.67-1.1-.53-1.2.5-1-.44-1.15.46-1.11-.64-1.15.5-1.18-.85-1 .42-1.23-.73-1 .29-1.18-.85-1 .21-1.23-1-.91.14-1.27-.86-.74.05-1.32-1.06-.74v-1.23l-1.18-.71v-1.03l-1.1-.68-.19-1.23-1.15-.58-.19-1.23-1.19-.5-.36-1.11-1.19-.49-.44-1.15-1.19-.3-.44-1.15-1.27-.33-.57-1.12-1.19-.09-.64-1.15-1.28-.13-.69-1.08-1.27.08-.69-1.08-1.27.08-.85-1-1.23.19-.86-.95-1.27.28-1-.91-1.12.36-1-.83-1.19.32L586 498l-1.1.36-1-.63-1.19.52-1.15-.58-1.11.57-1.1-.45-1.08.68L577 498l-1.07.69-1.22-.42-.87.89-1.27-.33-1 .85-1.23-.21-.95.85-1.1-.05-.87.89-1.31-.05-.75 1.06-1.19-.09-.79 1.14-1.27.07-.58 1.15-1.23.19-.54 1.06-1.24.2-.45 1.31-1.28.28-.37 1.14-1.24.4-.33 1.27-1.15.44-.22 1.23-1.19.52-.14 1.27-1.07.69-.09 1.19-1 .73.01 1.24-.94.85v1.23l-.91.77.07 1.27-.95.86.28 1.27-.86.9.31 1.19-.82 1 .4 1.23-.71 1 .53 1.2-.79 1.14ZM589.5 641.93c1 0 2 0 3-.12a.5.5 0 1 0-.08-1c-.94.07-1.91.11-2.87.11a.5.5 0 0 0-.5.5.5.5 0 0 0 .45.51ZM595.94 641.37a36.41 36.41 0 0 0 18.4-9.19.5.5 0 0 0 0-.71.49.49 0 0 0-.7 0 35.36 35.36 0 0 1-17.9 8.93.5.5 0 0 0 .09 1ZM616.79 628.13a.51.51 0 0 0 .07.71.46.46 0 0 0 .32.11.49.49 0 0 0 .38-.18c.46-.54.89-1.11 1.31-1.68l-1.51.34c-.19.23-.36.47-.57.7ZM583.94 641.51h.06a.5.5 0 0 0 .08-1 35.43 35.43 0 0 1-10.45-3.3l-1.5.33a36.47 36.47 0 0 0 11.81 3.97ZM589.5 638.93a33.33 33.33 0 0 0 12.12-2.26.5.5 0 0 0 .29-.64.5.5 0 0 0-.65-.29 32.7 32.7 0 0 1-22.58.35l-1.78.39a33.5 33.5 0 0 0 12.6 2.45ZM606 633.43a.51.51 0 0 0-.18.69.5.5 0 0 0 .43.25.55.55 0 0 0 .25-.07 33.08 33.08 0 0 0 7.55-6.14l-1.76.4a31.86 31.86 0 0 1-6.29 4.87Z"
        style="fill:#f6d855" transform="translate(-419.67 -337.72)" />
    <path
        d="m606.18 629.92-.36.08a29.43 29.43 0 0 1-16.32 4.93.5.5 0 0 0-.5.5.5.5 0 0 0 .5.5 30.44 30.44 0 0 0 18.77-6.47l-2.09.47ZM596.77 652.38a.5.5 0 0 0 .08 1h.08a48.81 48.81 0 0 0 37.47-29.76l-1.19.26a47.75 47.75 0 0 1-36.44 28.5ZM596.9 655.39a50.87 50.87 0 0 1-7.4.54.5.5 0 0 0-.5.5.5.5 0 0 0 .5.5 51.29 51.29 0 0 0 7.54-.55.49.49 0 0 0 .42-.56.5.5 0 0 0-.56-.43Z"
        style="fill:#f6d855" transform="translate(-419.67 -337.72)" />
    <path
        d="M604.48 653.67a.51.51 0 0 0-.33.63.51.51 0 0 0 .48.35h.15A51.23 51.23 0 0 0 638 622.8l-1.15.26a50.24 50.24 0 0 1-32.37 30.61Z"
        style="fill:#f6d855" transform="translate(-419.67 -337.72)" />
    <path
        d="M613.7 653.16a53.49 53.49 0 0 1-6.28 2.7c-1.74.61-3.51 1.14-5.28 1.57a.5.5 0 0 0 .12 1h.11a51 51 0 0 0 5.38-1.6A54.62 54.62 0 0 0 641.44 622l-1.14.26a53.3 53.3 0 0 1-26.6 30.9Z"
        style="fill:#f6d855" transform="translate(-419.67 -337.72)" />
    <path
        d="M419.71 688.53v-91.05a19.59 19.59 0 0 1 15.14-19.36h.17l111-24.88 61.19-13.71v.08l34.83-7.8v.07l1.49-.33.78-.25 71.46-16a17.57 17.57 0 0 0 13.72-18.11v-.85l2-.44v91a19.58 19.58 0 0 1-15.15 19.36h-.16l-111 24.87L544 644.88v-.08l-34.82 7.81v-.08l-1.5.34-.78.25-71.46 16a17.57 17.57 0 0 0-13.72 18.11l.05.85Zm2-89.47v78.64A19.5 19.5 0 0 1 435 667.18l70.68-15.84.78-.25 4.71-1.05v.07l34.82-7.8v.07l61.19-13.71 108.56-24.32.16-.05a17.57 17.57 0 0 0 13.56-18.14l-.05-.84h.1v-78.65a19.56 19.56 0 0 1-13.33 10.53L645.5 533l-.78.25-4.72 1.09v-.08l-34.83 7.81V542L544 555.7 435.43 580h-.15a17.57 17.57 0 0 0-13.56 18.14v.84Z"
        style="fill:#f6d855" transform="translate(-419.67 -337.72)" />
    <path
        d="m420.82 674.78-.13-.49h-.48a19.07 19.07 0 0 1 14.9-19.64l71.07-15.93.39-.16 4.1-.92v.07l34.82-7.8v.09l61.19-13.71L716 591.8a18.08 18.08 0 0 0 14-18.66v-.42l.4-.09.14.48h.48a19.09 19.09 0 0 1-14.73 19.69h-.16l-110.45 24.75-61.19 13.71v-.08L509.67 639v-.07l-2.5.56-.39.16-71.45 16a18.08 18.08 0 0 0-14.12 18.62v.43ZM420.83 611.75l-.14-.49h-.47A19.08 19.08 0 0 1 435 591.6l.16-.05 110.38-24.73 61.19-13.71v.07l34.83-7.8v.07l2.49-.55.39-.17 71.46-16a18.06 18.06 0 0 0 14.1-18.62v-.42l.42-.09.13.48h.47a19.07 19.07 0 0 1-14.89 19.65L645 545.63l-.39.16-4.1.92v-.07l-34.83 7.8v-.08l-61.19 13.72-109.32 24.5a18.09 18.09 0 0 0-13.95 18.66v.42ZM474 571.3h-.07a1 1 0 0 1-.93-1.06 17.33 17.33 0 0 1 21.54-15.55 1 1 0 0 1 .73 1.21 1 1 0 0 1-1.22.73A15.32 15.32 0 0 0 475 570.37a1 1 0 0 1-1 .93Z"
        style="fill:#f6d855" transform="translate(-419.67 -337.72)" />
    <path
        d="M477.83 561a1 1 0 0 1-.71-.29l-2.89-2.89a1 1 0 0 1 1.42-1.42l2.89 2.89a1 1 0 0 1 0 1.42 1 1 0 0 1-.71.29ZM478.78 569.82h-.09a.5.5 0 0 1-.4-.58 12.23 12.23 0 0 1 16-9.28.48.48 0 0 1 .3.63.49.49 0 0 1-.63.31 11.25 11.25 0 0 0-14.7 8.52.49.49 0 0 1-.48.4Z"
        style="fill:#f6d855" transform="translate(-419.67 -337.72)" />
    <path
        d="M482.3 567.4a.47.47 0 0 1-.25-.07.49.49 0 0 1-.18-.68 9.71 9.71 0 0 1 6.46-4.68.5.5 0 0 1 .59.39.49.49 0 0 1-.39.59 8.72 8.72 0 0 0-5.8 4.2.5.5 0 0 1-.43.25ZM494.66 563.88a.53.53 0 0 1-.24-.06 8.44 8.44 0 0 0-3.07-1 .5.5 0 0 1-.43-.56.49.49 0 0 1 .56-.43 9.45 9.45 0 0 1 3.42 1.09.5.5 0 0 1-.24.94Z"
        style="fill:#f6d855" transform="translate(-419.67 -337.72)" />
    <path
        d="M495.19 566.56a1 1 0 0 1-1-.71 23.45 23.45 0 1 1 45.67-10.18 1 1 0 1 1-2 .3 21.46 21.46 0 1 0-41.78 9.3 1 1 0 0 1-.67 1.25.9.9 0 0 1-.22.04Z"
        style="fill:#f6d855" transform="translate(-419.67 -337.72)" />
    <path
        d="M509 563.1a.5.5 0 0 1-.46-.29c-.12-.27-.23-.56-.33-.85a8.92 8.92 0 1 1 17.37-3.19.5.5 0 0 1-.48.52.53.53 0 0 1-.52-.48 7.63 7.63 0 0 0-.41-2.21 7.92 7.92 0 1 0-15 5c.09.26.19.51.3.76a.5.5 0 0 1-.25.66.52.52 0 0 1-.22.08Z"
        style="fill:#f6d855" transform="translate(-419.67 -337.72)" />
    <path d="M538.87 551.83a1 1 0 0 1-.32-1.94l5.32-1.79a1 1 0 0 1 .64 1.9l-5.32 1.78a.93.93 0 0 1-.32.05Z"
        style="fill:#f6d855" transform="translate(-419.67 -337.72)" />
    <path
        d="M526.94 538.62a1 1 0 0 1-.44-.11 1 1 0 0 1-.45-1.34l2.5-5a1 1 0 0 1 1.34-.45 1 1 0 0 1 .45 1.34l-2.5 5a1 1 0 0 1-.9.56Z"
        style="fill:#f6d855" transform="translate(-419.67 -337.72)" />
    <path
        d="M509.17 537.7a1 1 0 0 1-.95-.68l-1.79-5.33a1 1 0 0 1 1.9-.63l1.79 5.32a1 1 0 0 1-.63 1.27 1.25 1.25 0 0 1-.32.05Z"
        style="fill:#f6d855" transform="translate(-419.67 -337.72)" />
    <path
        d="M496 549.62a1.06 1.06 0 0 1-.45-.11l-5-2.5a1 1 0 0 1-.45-1.34 1 1 0 0 1 1.34-.45l5 2.5a1 1 0 0 1 .45 1.34 1 1 0 0 1-.89.56ZM498.87 557.86h-.05a.5.5 0 0 1-.45-.55 18.41 18.41 0 0 1 35.78-4 .5.5 0 0 1-.31.64.51.51 0 0 1-.64-.32 17.41 17.41 0 0 0-33.83 3.83.51.51 0 0 1-.5.4Z"
        style="fill:#f6d855" transform="translate(-419.67 -337.72)" />
    <path
        d="M530.35 553.42a.52.52 0 0 1-.46-.29 14.59 14.59 0 0 0-4-5.26.5.5 0 0 1-.08-.7.52.52 0 0 1 .71-.08 15.66 15.66 0 0 1 4.34 5.63.51.51 0 0 1-.25.66.52.52 0 0 1-.26.04ZM502.48 564.39a.49.49 0 0 1-.47-.34 15.5 15.5 0 0 1 18.88-19.85.51.51 0 0 1 .34.62.5.5 0 0 1-.61.35A14.49 14.49 0 0 0 503 563.74a.51.51 0 0 1-.32.63.44.44 0 0 1-.2.02ZM531.6 558a.5.5 0 0 1-.49-.44 15.36 15.36 0 0 0-.28-1.65.5.5 0 0 1 .37-.6.5.5 0 0 1 .6.37 13.63 13.63 0 0 1 .3 1.77.5.5 0 0 1-.44.55Z"
        style="fill:#f6d855" transform="translate(-419.67 -337.72)" />
    <path
        d="M505.25 563.47a.51.51 0 0 1-.48-.35 12.52 12.52 0 0 1-.53-5.73.5.5 0 0 1 .56-.43.52.52 0 0 1 .43.57 11.42 11.42 0 0 0 .49 5.28.5.5 0 0 1-.31.63ZM528.73 558.54a.49.49 0 0 1-.5-.45 11.59 11.59 0 0 0-20.11-6.75.5.5 0 0 1-.74-.67 12.58 12.58 0 0 1 21.24 4.45 13 13 0 0 1 .61 2.88.5.5 0 0 1-.46.54ZM485.41 568.29a.47.47 0 0 1-.3-.1.5.5 0 0 1-.1-.7 6.62 6.62 0 0 1 8.36-1.87.5.5 0 1 1-.47.88 5.63 5.63 0 0 0-2.61-.64 5.55 5.55 0 0 0-4.48 2.24.5.5 0 0 1-.4.19ZM513.92 561.41l6.27-1.41a3.6 3.6 0 1 0-6.91.27 3.36 3.36 0 0 0 .64 1.14Z"
        style="fill:#f6d855" transform="translate(-419.67 -337.72)" />
    <path d="M418.74 617.12h9.78v1h-9.78z" style="fill:#f6d855" transform="rotate(-57.3 -93.534 835.148)" />
    <path d="M418.74 623.37h9.78v1h-9.78z" style="fill:#f6d855" transform="rotate(-57.3 -93.53 841.424)" />
    <path d="M418.74 629.62h9.78v1h-9.78z" style="fill:#f6d855" transform="rotate(-57.3 -93.517 847.705)" />
    <path d="M418.74 635.87h9.78v1h-9.78z" style="fill:#f6d855" transform="rotate(-57.3 -93.513 853.98)" />
    <path d="M418.74 642.12h9.78v1h-9.78z" style="fill:#f6d855" transform="rotate(-57.3 -93.515 860.266)" />
    <path
        d="M724.08 545.58a.47.47 0 0 1-.27-.08.5.5 0 0 1-.15-.69l5.25-8.25a.5.5 0 0 1 .69-.15.51.51 0 0 1 .16.69l-5.25 8.25a.51.51 0 0 1-.43.23ZM724.08 551.83a.47.47 0 0 1-.27-.08.5.5 0 0 1-.15-.69l5.25-8.25a.5.5 0 0 1 .69-.15.51.51 0 0 1 .16.69l-5.25 8.25a.51.51 0 0 1-.43.23ZM724.08 558.08a.47.47 0 0 1-.27-.08.5.5 0 0 1-.15-.69l5.25-8.25a.5.5 0 0 1 .69-.15.51.51 0 0 1 .16.69l-5.25 8.25a.51.51 0 0 1-.43.23ZM724.08 564.33a.47.47 0 0 1-.27-.08.5.5 0 0 1-.15-.69l5.25-8.25a.5.5 0 0 1 .69-.15.51.51 0 0 1 .16.69l-5.25 8.25a.51.51 0 0 1-.43.23ZM724.08 570.58a.47.47 0 0 1-.27-.08.5.5 0 0 1-.15-.69l5.25-8.25a.5.5 0 0 1 .69-.15.51.51 0 0 1 .16.69l-5.25 8.25a.51.51 0 0 1-.43.23Z"
        style="fill:#f6d855" transform="translate(-419.67 -337.72)" />
    <path
        d="m186.33 233.67-1.12.26v12.31h-1v-12.09l-1.13.26v11.83h-1v-11.61l-1.12.25v11.36h-.85v18.6l7.12-1.57v-17.03h-.9v-12.57zM178.83 235.37v6.55l1.13-.26v-6.55l-1.13.26zM176.71 235.84v6.56l1.12-.26v-6.55l-1.12.25zM187.33 233.45v6.56l1.13-.26v-6.56l-1.13.26zM189.46 232.97v6.56l1.12-.25v-6.57l-1.12.26zM109.96 255.51v21.11l.43-1.45.69-.16v-22.93l-1.12 3.43zM107.83 262v18.85l.92-.2.21-.68v-21.4l-1.13 3.43zM112.08 250.43v24.36l1.13-.25v-24.36l-1.13.25zM114.21 249.95v24.37l1.12-.25V249.7l-1.12.25zM105.58 268.86v12.49l1.25-.28v-16.02l-1.25 3.81zM101.17 282.33l1.16-.26v-3.29l-1.16 3.55zM103.33 275.73v6.12l1.25-.28v-9.65l-1.25 3.81zM116.33 249.47v24.37l1.13-.25v-24.37l-1.13.25zM119.35 248.79l-.89.2v24.38l1.12-.25v-23.74l-.23-.59zM129.77 275.99 120.58 252v20.99l1.61 4.68 7.58-1.68zM213.08 250.96v6.58l1.13-.25v-6.58l-1.13.25zM210.96 251.43v6.58l1.12-.25v-6.58l-1.12.25zM208.83 251.9v6.58l1.13-.25v-6.58l-1.13.25zM215.21 250.48v6.59l1.19-.26v-6.59l-1.19.26z"
        style="fill:#f6d855" />
    <path
        d="M217.25 233.28v-6.59l-15.58 3.52v18.65h.79v11.03l1.12-.25v-10.78h1v10.56l1.13-.25v-10.31h1v10.09l1.12-.25v-9.84h.96v-2.1l7.98-1.78v-6.59l-5.46 1.22-2.52.57v-5l8.46-1.9z"
        style="fill:#f6d855" />
    <path
        d="M660.18 565.32h.13v-6.62a10.4 10.4 0 0 0-1.12 0v6.45a5.77 5.77 0 0 1 .99.17ZM662.5 566.33v-7.44c-.39-.06-.79-.1-1.19-.13v6.92a7 7 0 0 1 1.19.65ZM655.68 566.55a4.14 4.14 0 0 1 .38-.35v-6.91c-.38.11-.76.24-1.12.38v8.14a3 3 0 0 1 .74-1.26Z"
        style="fill:#f6d855" transform="translate(-419.67 -337.72)" />
    <path
        d="M664.84 573.23a8.21 8.21 0 0 0-5.1-2.26c-.58-.08-1.16-.15-1.76-.2a8.65 8.65 0 0 1-1.59-.3 2.83 2.83 0 0 1-1.15-.64 1.62 1.62 0 0 1-.43-1.22 2.71 2.71 0 0 1 0-.4h-.91v-8.1a11.59 11.59 0 0 0-1 .58l-.09.06v7.46h-1v-6.74a10.94 10.94 0 0 0-1.12 1v5.71h-1v-4.48a12.25 12.25 0 0 0-1.13 1.92v2.59h-.88a13.43 13.43 0 0 0-.31 2.87 8.23 8.23 0 0 0 .63 3.53 5.16 5.16 0 0 0 1.67 2 6.48 6.48 0 0 0 2.36 1q1.32.29 2.7.45c.78.12 1.44.24 2 .35a4.54 4.54 0 0 1 1.33.48 1.8 1.8 0 0 1 .72.76 2.48 2.48 0 0 1 .22 1.12 3.44 3.44 0 0 1-.85 2.18 4.46 4.46 0 0 1-2.6 1.46 6.56 6.56 0 0 1-3.08-.07 9.29 9.29 0 0 1-3.16-1.61l-3 7a13.49 13.49 0 0 0 9.62 1.25 15.2 15.2 0 0 0 4.48-1.73 12.76 12.76 0 0 0 3.34-2.81 11.57 11.57 0 0 0 2.07-3.67 13.12 13.12 0 0 0 .71-4.34 7.47 7.47 0 0 0-1.69-5.2ZM665.33 559.6a14.7 14.7 0 0 0-1.83-.53V564Z"
        style="fill:#f6d855" transform="translate(-419.67 -337.72)" />
    <path d="m657.93 565.33.26-.05v-6.43c-.38 0-.76.11-1.13.19v6.57a5.54 5.54 0 0 1 .87-.28Z" style="fill:#f6d855"
        transform="translate(-419.67 -337.72)" />
    <path
        d="M165.67 248.78v-10.44l-7.08 1.59v8.85h.95v20.62l1.13-.25v-20.37h1v20.15l1.12-.25v-19.9h1v19.68l1.13-.25v-19.43h.75zM145.45 242.9l-7.11 1.6v29.6l7.11-1.58v-18.11l13.09 15.14v-11.53l-13.09-15.12zM71.39 259.61l-1.12.26v20.3h-1v-20.08l-1.13.26v19.82h-1v-19.6l-1.12.26v19.34h-.82v10.13l7.11-1.58v-8.55h-.92v-20.56zM85.45 256.44v17.96l-13.06-14.9v11.39l13.06 14.92 7.08-1.57v-29.4l-7.08 1.6zM174.58 236.32v6.55l1.13-.25v-6.55l-1.13.25zM192.65 232.25l-1.07.24v6.56l1.07-.24v-6.56z"
        style="fill:#f6d855" />
    <path
        d="M571.44 423.08A42.75 42.75 0 1 1 574 423c-.85.05-1.71.08-2.56.08Zm0-83.36c-.81 0-1.63 0-2.45.07a40.72 40.72 0 0 0-38.18 43 40.68 40.68 0 1 0 40.63-43.1Z"
        style="fill:#f6d855" transform="translate(-419.67 -337.72)" />
    <path
        d="M572.33 422.55c-8.43 0-16.51-3.86-22.93-11-6.81-7.57-10.92-17.92-11.59-29.14-1.39-23.22 12.58-43 31.14-44.11s34.79 16.88 36.17 40.09c.67 11.23-2.19 22-8 30.32S583 422 574 422.5c-.57.04-1.12.05-1.67.05Zm-1.75-83.3c-.52 0-1 0-1.57.05-18 1.07-31.56 20.38-30.21 43.05.66 11 4.69 21.13 11.34 28.53s15.08 11.14 23.78 10.63 16.63-5.27 22.34-13.38 8.52-18.68 7.87-29.68c-1.32-22-16.2-39.2-33.55-39.2Z"
        style="fill:#f6d855" transform="translate(-419.67 -337.72)" />
    <path d="M547.5 389.98h2v77.97h-2z" style="fill:#f6d855" transform="rotate(-25.41 -410.309 1190.83)" />
    <path d="M560.98 424.89h77.97v2h-77.97z" style="fill:#f6d855" transform="rotate(-71.41 155.136 548.994)" />
    <path
        d="M560.2 465.75a1 1 0 0 1-.06-2l32.45-1.93a1 1 0 0 1 1.06.94 1 1 0 0 1-.94 1.05l-32.45 1.94ZM571.15 486.44a1 1 0 0 1-1-.94l-.26-4.36a1 1 0 0 1 .94-1.06 1 1 0 0 1 1.06.94l.26 4.36a1 1 0 0 1-.94 1.06ZM584.24 485.66a1 1 0 0 1-1-.94l-.26-4.36a1 1 0 1 1 2-.12l.26 4.36a1 1 0 0 1-.94 1.06ZM563.14 472a.5.5 0 0 1-.5-.47.49.49 0 0 1 .47-.53l6.92-.41a.5.5 0 1 1 .06 1l-6.92.42ZM563.29 474.51a.5.5 0 0 1-.5-.47.5.5 0 0 1 .47-.53l6.08-.36a.5.5 0 0 1 .06 1l-6.08.36ZM563.44 477.05a.5.5 0 0 1 0-1l5.23-.32a.52.52 0 0 1 .53.47.49.49 0 0 1-.47.53l-5.23.31Z"
        style="fill:#f6d855" transform="translate(-419.67 -337.72)" />
    <path
        d="M566.61 484.24a3.73 3.73 0 0 1-3.72-3.51l-1-17.08 29-1.73 1 17.09a3.75 3.75 0 0 1-3.5 3.94l-21.54 1.29ZM564 465.53l.9 15.09a1.73 1.73 0 0 0 1.83 1.62l21.53-1.24a1.76 1.76 0 0 0 1.19-.58 1.72 1.72 0 0 0 .43-1.26L589 464ZM573.08 423c-13.69 0-25.75-18.13-27.12-41.11-.68-11.29 1.29-22.07 5.53-30.36 4.33-8.46 10.52-13.35 17.43-13.76 14-.85 26.65 17.59 28.05 41.08.68 11.29-1.29 22.07-5.53 30.36-4.33 8.49-10.52 13.38-17.44 13.79ZM548 381.8c1.34 22.39 13 40 25.94 39.21 6.17-.37 11.78-4.87 15.77-12.68 4.08-8 6-18.39 5.32-29.33-1.34-22.39-13-40-25.94-39.21-6.18.37-11.78 4.88-15.77 12.68-4.13 7.98-6.02 18.4-5.32 29.33Z"
        style="fill:#f6d855" transform="translate(-419.67 -337.72)" />
    <path
        d="M573.86 423c-1.49 0-3.71-1.49-6.12-12.71a206 206 0 0 1-3.63-29.46 205.47 205.47 0 0 1 .11-29.68c1.09-11.79 3.21-13.27 4.7-13.36s3.78 1.13 6.27 12.7a235.15 235.15 0 0 1 3.52 59.14c-1.09 11.79-3.21 13.27-4.7 13.36ZM569 339.79c-1.86.25-4.51 14.52-2.94 40.93 1.62 26.41 5.94 40.28 7.83 40.28 1.86-.25 4.51-14.52 2.94-40.93s-5.91-40.26-7.83-40.28ZM572.88 465a1 1 0 0 1-1-.69l-14.56-44.58a1 1 0 0 1 1.9-.62l14.56 44.58a1 1 0 0 1-.64 1.26.84.84 0 0 1-.26.05ZM579.83 464.58h-.19a1 1 0 0 1-.79-1.18l9.16-46a1 1 0 0 1 1.18-.78 1 1 0 0 1 .78 1.17l-9.16 46a1 1 0 0 1-.98.79Z"
        style="fill:#f6d855" transform="translate(-419.67 -337.72)" />
    <path
        d="M571.41 422.58a42.26 42.26 0 1 1 2.57-.08c-.86.05-1.72.08-2.57.08Zm.08-83.36c-.82 0-1.64 0-2.48.08a41.06 41.06 0 1 0 2.48-.08Z"
        style="fill:#f6d855" transform="translate(-419.67 -337.72)" />
    <path
        d="M572.33 423.05c-8.57 0-16.79-3.92-23.3-11.16-6.88-7.66-11-18.11-11.72-29.45-1.4-23.49 12.78-43.52 31.61-44.64s35.3 17.07 36.7 40.56c.68 11.34-2.21 22.22-8.14 30.64s-14.31 13.46-23.48 14c-.55 0-1.11.05-1.67.05Zm-1.75-83.3h-1.54c-17.73 1.06-31.07 20.14-29.74 42.53.65 10.89 4.63 20.91 11.22 28.23s14.82 11 23.37 10.46 16.34-5.19 22-13.16 8.43-18.48 7.78-29.37c-1.34-21.7-16.01-38.69-33.09-38.69Z"
        style="fill:#f6d855" transform="translate(-419.67 -337.72)" />
    <path
        d="M573.08 422.53c-13.43 0-25.27-17.93-26.62-40.64-.67-11.2 1.27-21.89 5.47-30.1s10.29-13.09 17-13.49c13.79-.83 26.14 17.39 27.52 40.61.67 11.2-1.27 21.89-5.47 30.1s-10.29 13.09-17 13.49Zm-25.63-40.7c1.36 22.67 13.22 40.45 26.47 39.68 6.36-.38 12.11-5 16.18-12.95s6-18.57 5.38-29.59c-1.36-22.67-13.22-40.45-26.47-39.67-6.36.37-12.11 5-16.18 12.94s-6.03 18.57-5.38 29.59Z"
        style="fill:#f6d855" transform="translate(-419.67 -337.72)" />
    <path
        d="M573.89 422.51c-2 0-3.9-4.14-5.66-12.32a234.55 234.55 0 0 1-3.51-59c.78-8.44 2.2-12.78 4.23-12.9h.05c2 0 3.9 4.15 5.66 12.32a234.55 234.55 0 0 1 3.51 59c-.78 8.44-2.2 12.78-4.23 12.9ZM569 339.29c-1 .06-2.49 3.24-3.3 12a205.13 205.13 0 0 0-.11 29.45 206.81 206.81 0 0 0 3.62 29.26c1.83 8.52 3.65 11.53 4.68 11.53 2.77-.17 4.85-17.24 3.41-41.46a206.81 206.81 0 0 0-3.61-29.23c-1.8-8.54-3.62-11.55-4.69-11.55Z"
        style="fill:#f6d855" transform="translate(-419.67 -337.72)" />
    <path
        d="M652.67 375.33h-85.34a1 1 0 0 1 0-2h85.34a1 1 0 0 1 0 2ZM642.67 387.83h-59.34a1 1 0 0 1 0-2h59.34a1 1 0 0 1 0 2ZM642.67 362.83h-29.34a1 1 0 0 1 0-2h29.34a1 1 0 0 1 0 2Z"
        style="fill:#f6d855" transform="translate(-419.67 -337.72)" />
    <path
        d="M94.33 312.53h1v43.75h-1zM85.33 314.53h1v38.75h-1zM76.33 316.53h1v37.75h-1zM67.33 318.53h1v37.75h-1zM58.33 320.53h1v37.75h-1zM49.33 322.53h1v37.75h-1zM40.33 324.53h1v37.75h-1zM31.33 326.53h1v37.75h-1zM22.33 328.53h1v37.75h-1zM13.33 330.53h1v35.75h-1zM5.33 335.28h1v26h-1zM232.33 154.53h1v37.75h-1zM241.33 152.53h1v37.75h-1zM250.33 150.53h1v37.75h-1zM259.33 148.53h1v37.75h-1zM268.33 146.53h1v37.75h-1zM277.33 144.53h1v37.75h-1zM286.33 142.53h1v37.75h-1zM295.33 142.53h1v35.75h-1zM303.33 145.53h1v29h-1z"
        style="fill:#f6d855" />
</svg>